<?xml version="1.0" encoding="utf-8"?>
<!-- Designed by Vexels.com - 2021 All Rights Reserved - https://vexels.com/terms-and-conditions/  -->
<svg version="1.1" id="Layer_1" xmlns="http://www.w3.org/2000/svg" xmlns:xlink="http://www.w3.org/1999/xlink" x="0px" y="0px"
	 viewBox="0 0 1200 1200" enable-background="new 0 0 1200 1200" xml:space="preserve">
<g>
	<path fill="#D46D4E" d="M616.661,577.912c-2.187,0.013-4.374,0.025-6.56,0.038c-0.953-1.47-1.981-1.639-3.1-0.174
		c-5.43-0.36-10.86-0.721-16.289-1.081c-8.344-3.238-17.085-2.938-25.332-0.813c-8.539,2.201-17.008,2.442-25.614,2.447
		c-15.635,0.008-31.27-0.042-46.904-0.07c-38.279-0.067-76.558-0.12-114.836-0.22c-4.309-0.011-8.834,0.506-12.882-0.601
		c-10.076-2.755-20.285-2.285-30.492-2.501c-0.946-0.141-1.897-0.169-2.851-0.082c-1.862-0.936-3.673-2.559-5.593-2.701
		c-22.41-1.657-43.907-8.337-65.983-11.869c-22.091-3.534-43.662-9.529-64.582-17.632c-36.651-13.067-71.934-29.008-104.895-49.844
		c-7.776-4.916-15.091-10.439-21.635-16.9c-29.585-29.212-20.277-67.043-2.623-86.095c10.734-11.586,23.186-20.911,36.707-28.935
		c28.465-16.892,59.162-28.547,90.55-38.53c51.99-16.535,105.271-27.363,159.061-36.046c53.263-8.598,106.869-14.214,160.625-18.098
		c47.846-3.457,95.789-5.184,143.814-4.931c44.767,0.236,89.493,1.187,134.12,4.549c84.587,6.371,168.116,18.917,249.236,44.72
		c20.083,6.388,39.366,14.684,57.911,24.71c10.967,5.929,21.344,12.739,30.148,21.578c4.915,4.934,9.491,10.351,13.413,16.1
		c10.049,14.734,10.38,30.051,1.908,45.786c-5.99,11.125-14.337,20.182-23.687,28.422c-11.383,10.031-23.965,18.351-37.381,25.392
		c-5.751,3.018-11.073,6.414-15.777,11.05c-6.556,6.459-14.56,11.041-22.576,15.55c-4.642,2.612-9.98,4.273-13.382,8.808
		c-21.656,7.53-43.252,15.191-65.277,21.66c-18.404,5.406-36.325,12.47-55.44,15.314c-0.928,0.138-1.722,1.183-2.575,1.81
		c-4.612,0.304-9.225,0.605-13.839,0.906c-3.717,0.271-7.544,0.063-11.134,0.886c-31.89,7.31-64.217,11.865-96.669,15.675
		c-12.285,0.9-24.57,1.796-36.853,2.707c-1.073,0.08-2.161,0.164-3.203,0.41c-18.4,4.335-37.031,6.482-55.948,6.013
		c-3.25-0.081-6.499,0.039-8.918,2.751c-4.436,0.093-8.872,0.183-13.308,0.273c-16.101-0.2-32.202-0.4-48.3-0.6
		C618.617,576.279,617.605,576.459,616.661,577.912z"/>
	<path fill="#B7906E" d="M195.643,542.654c20.92,8.103,42.492,14.098,64.582,17.632c22.077,3.532,43.573,10.212,65.983,11.869
		c1.92,0.142,3.731,1.766,5.591,2.703c-5.669,2.769-9.105,6.945-10.126,13.471c-1.812,11.586-4.691,22.98-6.77,34.539
		c-1.813,10.082-1.111,20.529-3.766,30.151c-3.91,14.176-0.402,28.879-5.016,42.963c-2.067,6.31,0.846,8.577,9.432,11.955
		c0.963,5.981,0.04,11.913-1.237,17.661c-8.891,40.005-14.51,80.603-22.189,120.824c-2.323,12.166-5.403,24.188-8.138,36.275
		c-1.466,6.478-4.532,11.503-9.966,15.951c-17.21,14.086-35.501,26.266-55.773,35.456c-5.056,2.292-10.133,3.129-15.696,2.369
		c-12.301-1.68-24.556-3.284-35.964-8.732c-3.359-1.604-7.152-2.288-10.729-3.446c-10.302-3.335-15.611-11.282-14.177-22.284
		c3.618-27.772,7.115-55.538,13.008-82.995c6.447-30.04,10.373-60.466,12.239-91.232c2.089-34.441,7.096-68.585,14.023-102.442
		c5.075-24.805,9.46-49.753,14.072-74.651C195.514,548.065,195.451,545.336,195.643,542.654z M276.806,607.75
		c-0.317-4.279-0.549-8.567-0.992-12.832c-0.196-1.889-3.547-2.885-5.243-1.791c-5.31,3.425-8.074,8.659-9.796,14.413
		c-5.237,17.496-10.355,35.029-15.339,52.598c-1.756,6.19-3.908,12.475-4.281,18.81c-0.985,16.738-5.791,32.716-8.642,49.072
		c-2.668,15.305-6.334,30.545-7.499,45.97c-0.936,12.383-3.377,24.434-5.016,36.639c-2.924,21.765-12.358,42.349-11.997,64.75
		c-5.346,12.739-0.444,26.92-5.628,39.774c-1.133,2.809-0.438,6.448,1.619,9.265c1.315,1.801,3.011,3.096,5.325,3.213
		c2.365,0.121,4.265-0.894,5.046-3.135c1.412-4.057,2.733-8.159,3.819-12.313c4.343-16.62,7.678-33.568,13.103-49.821
		c5.819-17.435,10.121-35.204,12.392-53.231c3.491-27.707,9.092-55.024,14.469-82.32c6.223-31.586,10.734-63.362,15.143-95.19
		C274.389,623.671,277.995,616.059,276.806,607.75z"/>
	<path fill="#B7906E" d="M907.885,548.721c0.856-0.623,1.649-1.668,2.578-1.806c19.115-2.844,37.037-9.909,55.44-15.314
		c22.025-6.469,43.621-14.129,65.277-21.66c2.406,17.555,4.768,35.119,7.228,52.67c2.833,20.219,5.901,40.406,8.603,60.642
		c5.263,39.42,10.521,78.842,15.441,118.305c3.989,31.999,6.933,64.138,11.424,96.062c2.252,16.011,1.534,32.211,4.47,48.101
		c0.192,1.04,0.221,2.135,0.155,3.194c-0.38,6.14-4.034,9.761-10.343,9.765c-16.676,0.011-33.351-0.151-50.027-0.243
		c-0.075-5.918,1.102-12.202-0.493-17.677c-2.946-10.109-2.337-20.237-2.612-30.414c-0.131-4.845,0.848-10.029-0.544-14.474
		c-4.568-14.586-2.822-29.813-5.147-44.67c-2.486-15.884-5.131-31.676-8.661-47.349c-2.829-12.559-6.03-25.085-5.013-38.144
		c1.016-13.046-2.216-25.669-4.507-38.253c-4.049-22.241-13.049-43.075-20.489-64.331c-1.419-4.054-3.286-7.961-5.148-11.839
		c-0.343-0.716-1.694-1.389-2.509-1.313c-0.824,0.078-2.208,1.084-2.232,1.727c-0.274,6.96-1.267,14.067-0.263,20.867
		c2.812,19.052,5.934,38.095,9.961,56.921c3.609,16.873,6.345,33.703,5.72,50.998c-0.116,3.215-0.282,6.597,0.525,9.651
		c6.436,24.363,10.147,49.267,14.671,73.997c2.115,11.56,3.055,23.359,4.059,35.09c0.594,6.941,0.931,13.765,2.411,20.711
		c2.442,11.466,5.423,23.048,4.376,35.024c-11.612-6.713-23.287-13.319-34.816-20.171c-9.574-5.691-15.73-13.157-18.299-24.962
		c-4.676-21.494-10.113-42.914-17.607-63.7c-3.126-8.671-3.991-17.831-5.168-26.886c-1.939-14.913-5.408-29.645-5.403-44.793
		c6.946-11.054,8.042-23.419,5.663-35.591c-1.574-8.054-2.081-15.951-2.308-24.012c-0.122-4.298-0.406-8.605-0.899-12.876
		c-1.779-15.433-3.753-30.844-5.511-46.28C916.066,579.703,915.073,563.558,907.885,548.721z"/>
	<path fill="#B7906E" d="M681.323,578.07c2.419-2.71,5.669-2.829,8.918-2.749c18.918,0.469,37.548-1.678,55.948-6.013
		c1.042-0.246,2.13-0.33,3.203-0.41c12.284-0.911,24.569-1.807,36.852-2.706c4.904,6.144,12.303,8.361,18.976,11.416
		c16.011,7.33,31.75,15.138,47.176,23.625c17.272,9.502,34.691,18.734,52.047,28.084c1.218,7.319,2.39,14.645,3.663,21.954
		c2.721,15.635,5.285,31.304,8.384,46.865c0.84,4.22,1.47,8.347,1.473,12.61c-7.299-3.164-14.845-5.861-21.852-9.575
		c-26.35-13.967-52.524-28.265-78.764-42.438c0.521-5.975-1.763-10.005-7.315-12.875c-15.183-7.849-30.157-16.104-45.188-24.248
		c-13.616-7.377-27.625-14.144-40.676-22.418C710.57,590.572,695.805,584.692,681.323,578.07z"/>
	<path fill="#B7906E" d="M540.22,578.328c-0.151,0-0.302,0.002-0.453,0.002c-15.635,0.009-31.269-0.042-46.905-0.07
		c-38.279-0.067-76.557-0.12-114.836-0.22c-4.309-0.012-8.834,0.506-12.882-0.601c-10.076-2.755-20.285-2.285-30.494-2.502
		c0.381,4.739,0.762,9.478,1.143,14.217c1.055-0.198,2.136-0.657,3.16-0.555c14.815,1.477,29.622,3.03,45.146,4.638
		c-7.288,6.259-24.894,11.774-46.287,14.942c0.424,11.899-2.877,23.309-4.671,34.909c-1.879,12.152-3.671,24.34-7.448,36.127
		c-0.38,1.184,0.463,3.518,1.479,4.177c0.991,0.642,3.191,0.271,4.414-0.432c9.767-5.619,19.089-12.124,29.197-17.012
		c17.383-8.407,35.248-15.817,52.886-23.7c3.927-1.755,7.771-3.702,11.623-5.621c24.078-11.991,48.007-24.295,72.28-35.877
		c12.082-5.765,24.71-10.426,37.255-15.154c2.455-0.925,29.071-10.254,30.267-8.997L540.22,578.328z"/>
	<path fill="#B7906E" d="M814.193,659.297c-0.345,11.446,3.18,22.349,4.705,33.533c1.31,9.605,2.639,19.209,3.811,28.831
		c0.934,7.668-0.704,15.056-3.176,22.24c-1.729,5.023-5.466,8.223-10.789,8.448c-10.768,0.455-21.555,0.532-32.336,0.619
		c-6.144,0.049-10.477-3.208-12.155-8.87c-4.126-13.927-9.248-27.627-11.064-42.148c-2.473-19.782-4.685-39.597-7.177-59.377
		c-0.535-4.242-1.792-8.393-2.717-12.587c5.698-0.606,10.403,2.169,15.189,4.557c9.126,4.553,18.248,9.119,27.293,13.832
		C794.844,653.101,804.136,657.177,814.193,659.297z"/>
	<path fill="#B7906E" d="M450.959,642.942c-1.253,7.379-2.215,14.822-3.817,22.125c-3.926,17.903-5.627,35.963-5.323,54.292
		c0.16,9.622,0.178,19.342-3.973,28.458c-2.135,4.688-5.064,7.658-10.529,8.697c-9.986,1.898-19.754,4.937-29.735,6.874
		c-6.601,1.281-10.126-1.018-12.473-7.253c-1.103-2.93-1.873-6.231-1.766-9.329c0.444-12.854,0.27-25.723,2.024-38.549
		c1.304-9.537,1.428-19.239,1.986-28.873c0.192-3.312-0.271-6.461-3.807-8.089c21.671-8.698,43.352-17.38,64.282-27.803
		C448.737,643.039,449.909,643.114,450.959,642.942z"/>
	<path fill="#9E7652" d="M450.959,642.942c-1.05,0.171-2.222,0.097-3.132,0.55c-20.93,10.423-42.61,19.105-64.282,27.803
		c-20.642,10.719-41.336,21.371-63.055,29.757c-3.886,1.5-4.483,3.744-4.937,6.887c-8.585-3.378-11.499-5.645-9.432-11.955
		c4.614-14.084,1.106-28.787,5.016-42.963c2.654-9.622,1.952-20.069,3.766-30.151c2.079-11.559,4.958-22.953,6.77-34.539
		c1.021-6.527,4.457-10.703,10.126-13.471c0.956-0.089,1.907-0.062,2.853,0.08c0.379,4.738,0.76,9.477,1.14,14.216
		c0.103,4.525,0.207,9.051,0.311,13.576c-0.833,1.967-0.409,3.604,1.288,4.906l0.421,0.544c0.425,11.898-2.877,23.308-4.67,34.907
		c-1.879,12.152-3.671,24.34-7.448,36.127c-0.38,1.184,0.463,3.518,1.479,4.177c0.991,0.642,3.191,0.271,4.413-0.432
		c9.767-5.619,19.089-12.123,29.198-17.012c17.383-8.407,35.247-15.817,52.886-23.7c3.927-1.755,7.771-3.702,11.623-5.621
		c24.078-11.991,48.007-24.295,72.28-35.877c12.082-5.765,24.71-10.426,37.255-15.154c4.718-1.778,38.381-14.333,39.008-10.005
		c-10.746,6.066-52.786,28.572-63.871,33.941C489.559,619.415,470.169,630.997,450.959,642.942z"/>
	<path fill="#9E7652" d="M1002.235,894.961c1.047-11.976-1.933-23.559-4.376-35.024c-1.48-6.946-1.816-13.77-2.411-20.711
		c-1.004-11.731-1.945-23.529-4.059-35.09c-4.524-24.73-8.235-49.634-14.671-73.997c-0.807-3.054-0.641-6.435-0.525-9.651
		c0.625-17.295-2.111-34.125-5.72-50.998c-4.027-18.826-7.149-37.869-9.961-56.921c-1.004-6.801-0.011-13.908,0.263-20.867
		c0.025-0.643,1.408-1.649,2.232-1.727c0.815-0.076,2.166,0.597,2.509,1.313c1.862,3.878,3.729,7.786,5.148,11.839
		c7.44,21.255,16.44,42.089,20.489,64.331c2.291,12.584,5.523,25.206,4.507,38.253c-1.017,13.059,2.183,25.585,5.013,38.144
		c3.529,15.673,6.175,31.464,8.661,47.349c2.325,14.857,0.58,30.084,5.147,44.67c1.392,4.445,0.413,9.629,0.544,14.474
		c0.275,10.176-0.334,20.305,2.612,30.414c1.595,5.475,0.418,11.759,0.493,17.677c-2.827,4.259-6.219,4.865-10.171,1.526
		C1006.023,898.329,1004.141,896.63,1002.235,894.961z"/>
	<path fill="#9E7652" d="M917.963,710.746c-0.003-4.263-0.633-8.39-1.473-12.61c-3.099-15.561-5.663-31.23-8.384-46.865
		c-1.272-7.309-2.445-14.636-3.663-21.954c-0.17-3.74-0.044-7.522-0.56-11.214c-3.198-22.835-6.54-45.65-9.835-68.472
		c4.614-0.301,9.227-0.601,13.839-0.906c7.186,14.833,8.179,30.978,9.999,46.964c1.758,15.436,3.731,30.847,5.511,46.28
		c0.493,4.271,0.777,8.578,0.899,12.876c0.227,8.062,0.734,15.958,2.308,24.012c2.379,12.173,1.283,24.538-5.663,35.591
		C919.949,713.215,918.956,711.98,917.963,710.746z"/>
	<path fill="#9E7652" d="M814.193,659.297c-10.057-2.121-19.349-6.197-28.416-10.922c-9.044-4.713-18.166-9.279-27.293-13.832
		c-4.787-2.388-9.491-5.162-15.189-4.557c-23.947-16.126-47.901-32.242-71.823-48.406c-1.29-0.872-2.308-2.146-3.455-3.234
		c4.434-0.091,8.87-0.181,13.306-0.273c14.482,6.62,29.246,12.499,42.845,21.119c13.051,8.273,27.06,15.04,40.676,22.418
		c15.03,8.144,30.004,16.399,45.188,24.248c5.552,2.87,7.836,6.901,7.315,12.875C816.308,658.988,815.257,659.177,814.193,659.297z"
		/>
	<path fill="#D46D4E" d="M616.661,577.912c0.943-1.453,1.956-1.633,3.054-0.166C618.695,577.802,617.678,577.857,616.661,577.912z"
		/>
	<path fill="#D46D4E" d="M607.002,577.776c1.119-1.465,2.147-1.296,3.1,0.174C609.067,577.892,608.035,577.834,607.002,577.776z"/>
	<path fill="#9E7652" d="M276.806,607.75c1.189,8.309-2.417,15.921-3.518,23.87c-4.409,31.828-8.92,63.603-15.143,95.19
		c-5.377,27.295-10.978,54.612-14.469,82.32c-2.271,18.027-6.573,35.796-12.392,53.231c-5.425,16.254-8.76,33.202-13.103,49.821
		c-1.086,4.155-2.407,8.257-3.819,12.313c-0.78,2.241-2.681,3.256-5.046,3.135c-2.314-0.117-4.01-1.412-5.325-3.213
		c-2.057-2.817-2.751-6.456-1.619-9.265c5.184-12.854,0.282-27.034,5.628-39.774c-0.36-22.401,9.073-42.985,11.997-64.75
		c1.64-12.206,4.08-24.257,5.016-36.639c1.166-15.424,4.831-30.664,7.499-45.97c2.851-16.356,7.657-32.334,8.642-49.072
		c0.373-6.336,2.525-12.62,4.281-18.81c4.983-17.57,10.101-35.103,15.339-52.598c1.723-5.754,4.486-10.988,9.796-14.413
		c1.696-1.094,5.047-0.098,5.243,1.791C276.257,599.184,276.489,603.472,276.806,607.75z"/>
	<path fill="#B7906E" d="M336.104,602.731c0.43,1.635,0.86,3.271,1.289,4.906C335.694,606.335,335.271,604.698,336.104,602.731z"/>
</g>
</svg>
